<?xml version="1.0" encoding="utf-8"?>
<svg width="167.00" height="120.00" version="1.1" xmlns="http://www.w3.org/2000/svg" xmlns:xlink="http://www.w3.org/1999/xlink">
  <g>
    <g>
      <g clip-path="url(#Clip_0)">
        <path d="M162.42 41.15 l-21.65 9.82 -10.94 -4.79 -0.01 -0.01 -35.53 -15.57 c-1.14 -0.50 -2.46 0.02 -2.96 1.16 -0.50 1.14 0.02 2.47 1.16 2.96 l34.22 15.00 0.00 7.64 -40.17 18.23 c-1.84 0.83 -3.95 0.83 -5.78 0.00 l-53.38 -24.22 0.00 0.00 -22.51 -10.21 c-0.29 -0.13 -0.35 -0.37 -0.35 -0.54 0.00 -0.18 0.06 -0.41 0.35 -0.54 l75.89 -34.43 c1.84 -0.83 3.95 -0.83 5.78 0.00 l75.89 34.43 c0.29 0.13 0.35 0.37 0.35 0.54 0.00 0.18 -0.06 0.41 -0.35 0.54 M92.25 107.84 c-1.35 0.61 -2.76 1.08 -4.21 1.39 -2.93 0.63 -5.89 0.63 -8.82 0.00 -1.14 -0.25 -3.41 -1.09 -4.26 -1.42 l-44.19 -20.05 c-1.23 -0.56 -2.03 -1.80 -2.03 -3.15 l0.00 -27.68 50.15 22.75 c1.51 0.69 3.13 1.03 4.75 1.03 1.62 0.00 3.24 -0.34 4.75 -1.03 l38.31 -17.38 0.00 29.91 z M164.28 35.96 l-75.89 -34.43 c-3.02 -1.37 -6.48 -1.37 -9.50 0.00 l-75.89 34.43 c-1.85 0.84 -2.99 2.62 -2.99 4.64 0.00 2.03 1.15 3.81 2.99 4.64 l21.25 9.64 0.00 29.73 c0.00 3.12 1.83 5.96 4.67 7.25 l44.25 20.08 0.11 0.05 c0.33 0.13 3.28 1.27 5.01 1.65 1.78 0.39 3.57 0.58 5.36 0.58 1.79 0.00 3.58 -0.19 5.36 -0.58 1.76 -0.38 3.48 -0.95 5.12 -1.69 l32.58 -14.78 0.00 20.60 c0.00 1.24 1.01 2.25 2.25 2.25 1.24 0.00 2.25 -1.01 2.25 -2.25 l0.00 -66.06 7.34 3.22 0.00 56.93 c0.00 1.24 1.01 2.25 2.25 2.25 1.24 0.00 2.25 -1.01 2.25 -2.25 l0.00 -56.95 21.24 -9.64 c1.85 -0.84 2.99 -2.62 2.99 -4.64 0.00 -2.03 -1.15 -3.81 -2.99 -4.64" fill="#171617" />
      </g>
    </g>
  </g>
  <style>#textid::selection {Background:rgba(0, 0, 255, 0.5);}
</style>
  <clipPath id="Clip_0">
    <path d="M0.00 119.94 h167.27 v-119.44 h-167.27 z" />
  </clipPath>
</svg>