<?xml version="1.0" encoding="utf-8"?>
<svg width="134.00" height="134.00" version="1.1" xmlns="http://www.w3.org/2000/svg" xmlns:xlink="http://www.w3.org/1999/xlink">
  <g>
    <g>
      <g clip-path="url(#Clip_0)">
        <path d="M133.33 101.76 l0.07 -0.23 0.06 -0.19 c0.06 -0.29 0.06 -0.59 0.00 -0.88 l-0.06 -0.19 -0.07 -0.23 -0.11 -0.22 -0.09 -0.17 c-0.08 -0.13 -0.18 -0.24 -0.28 -0.35 l-30.85 -30.85 c-0.88 -0.88 -2.30 -0.88 -3.18 0.00 -0.88 0.88 -0.88 2.30 0.00 3.18 l27.01 27.01 -123.57 0.00 c-1.24 0.00 -2.25 1.01 -2.25 2.25 0.00 1.24 1.01 2.25 2.25 2.25 l123.57 0.00 -27.01 27.01 c-0.88 0.88 -0.88 2.30 0.00 3.18 0.44 0.44 1.01 0.66 1.59 0.66 0.58 0.00 1.15 -0.22 1.59 -0.66 l30.85 -30.85 c0.11 -0.11 0.20 -0.22 0.28 -0.35 l0.09 -0.17 z M0.29 32.52 l0.09 -0.17 c0.08 -0.13 0.18 -0.24 0.28 -0.35 l30.85 -30.85 c0.88 -0.88 2.30 -0.88 3.18 0.00 0.88 0.88 0.88 2.30 0.00 3.18 l-27.01 27.01 123.57 0.00 c1.24 0.00 2.25 1.01 2.25 2.25 0.00 1.24 -1.01 2.25 -2.25 2.25 l-123.57 0.00 27.01 27.01 c0.88 0.88 0.88 2.30 0.00 3.18 -0.44 0.44 -1.01 0.66 -1.59 0.66 -0.58 0.00 -1.15 -0.22 -1.59 -0.66 l-30.85 -30.85 c-0.10 -0.10 -0.20 -0.22 -0.28 -0.35 l-0.09 -0.17 -0.12 -0.22 -0.07 -0.23 -0.06 -0.19 c-0.06 -0.29 -0.06 -0.59 0.00 -0.88 l0.06 -0.19 0.07 -0.23 0.12 -0.22" fill="#171617" />
      </g>
    </g>
  </g>
  <style>#textid::selection {Background:rgba(0, 0, 255, 0.5);}
</style>
  <clipPath id="Clip_0">
    <path d="M0.06 134.00 h133.44 v-133.50 h-133.44 z" />
  </clipPath>
</svg>