<?xml version="1.0" encoding="utf-8"?>
<svg width="133.00" height="133.00" version="1.1" xmlns="http://www.w3.org/2000/svg" xmlns:xlink="http://www.w3.org/1999/xlink">
  <g>
    <g>
      <g clip-path="url(#Clip_0)">
        <path d="M66.44 4.63 c-34.15 0.00 -61.94 27.78 -61.94 61.94 0.00 34.15 27.78 61.94 61.94 61.94 34.15 0.00 61.94 -27.78 61.94 -61.94 0.00 -34.15 -27.78 -61.94 -61.94 -61.94 M66.44 133.00 c-36.63 0.00 -66.44 -29.80 -66.44 -66.44 0.00 -36.63 29.80 -66.44 66.44 -66.44 36.63 0.00 66.44 29.80 66.44 66.44 0.00 36.63 -29.80 66.44 -66.44 66.44" fill="#171617" />
      </g>
      <g clip-path="url(#Clip_1)">
        <path d="M37.22 95.54 c-1.24 0.00 -2.25 -1.01 -2.25 -2.25 l0.00 -53.44 c0.00 -1.24 1.01 -2.25 2.25 -2.25 l27.50 0.00 c7.56 0.00 13.71 6.15 13.71 13.71 l0.00 20.06 c0.00 1.24 -1.01 2.25 -2.25 2.25 -1.24 0.00 -2.25 -1.01 -2.25 -2.25 l0.00 -20.06 c0.00 -5.08 -4.13 -9.21 -9.21 -9.21 l-25.25 0.00 0.00 51.19 c0.00 1.24 -1.01 2.25 -2.25 2.25" fill="#171617" />
      </g>
      <g clip-path="url(#Clip_1)">
        <path d="M95.66 95.54 l-27.50 0.00 c-7.56 0.00 -13.71 -6.15 -13.71 -13.71 l0.00 -20.06 c0.00 -1.24 1.01 -2.25 2.25 -2.25 1.24 0.00 2.25 1.01 2.25 2.25 l0.00 20.06 c0.00 5.08 4.13 9.21 9.21 9.21 l25.25 0.00 0.00 -51.19 c0.00 -1.24 1.01 -2.25 2.25 -2.25 1.24 0.00 2.25 1.01 2.25 2.25 l0.00 53.44 c0.00 1.24 -1.01 2.25 -2.25 2.25" fill="#171617" />
      </g>
    </g>
  </g>
  <style>#textid::selection {Background:rgba(0, 0, 255, 0.5);}
</style>
  <clipPath id="Clip_0">
    <path d="M0.06 133.00 h132.81 v-132.84 h-132.81 z" />
  </clipPath>
  <clipPath id="Clip_1">
    <path d="M-3000.00 3133.00 h6000.00 v-6000.00 h-6000.00 z" />
  </clipPath>
</svg>