<?xml version="1.0" encoding="utf-8"?>
<svg width="133.00" height="133.00" version="1.1" xmlns="http://www.w3.org/2000/svg" xmlns:xlink="http://www.w3.org/1999/xlink">
  <g>
    <g>
      <g clip-path="url(#Clip_0)">
        <path d="M66.44 4.63 c-34.15 0.00 -61.94 27.78 -61.94 61.94 0.00 34.15 27.78 61.94 61.94 61.94 34.15 0.00 61.94 -27.78 61.94 -61.94 0.00 -34.15 -27.78 -61.94 -61.94 -61.94 M66.44 133.00 c-36.63 0.00 -66.44 -29.80 -66.44 -66.44 0.00 -36.63 29.80 -66.44 66.44 -66.44 36.63 0.00 66.44 29.80 66.44 66.44 0.00 36.63 -29.80 66.44 -66.44 66.44" fill="#171617" />
      </g>
      <g clip-path="url(#Clip_1)">
        <path d="M43.13 99.20 l44.33 0.00 0.00 -4.63 -35.33 0.00 0.40 -0.25 c1.37 -0.85 2.43 -2.07 3.15 -3.64 0.72 -1.58 1.19 -3.52 1.39 -5.75 l1.51 -17.92 21.51 0.00 1.13 -4.53 -22.27 0.00 1.01 -11.34 c0.46 -5.47 1.82 -9.58 4.03 -12.22 2.22 -2.65 5.21 -4.00 8.90 -4.00 2.61 0.00 4.88 0.48 6.76 1.41 1.83 0.92 3.65 2.07 5.41 3.43 l2.84 -3.79 c-1.63 -1.36 -3.64 -2.63 -5.98 -3.80 -2.37 -1.18 -5.31 -1.78 -8.74 -1.78 -5.80 0.00 -10.24 1.82 -13.19 5.40 -2.97 3.60 -4.74 8.60 -5.27 14.87 l-1.01 11.82 -9.09 0.00 0.00 4.53 8.71 0.00 -1.51 17.84 c-0.53 6.40 -3.46 9.67 -8.70 9.72 l0.00 4.63" fill="#171617" />
      </g>
    </g>
  </g>
  <style>#textid::selection {Background:rgba(0, 0, 255, 0.5);}
</style>
  <clipPath id="Clip_0">
    <path d="M0.06 133.00 h132.81 v-132.84 h-132.81 z" />
  </clipPath>
  <clipPath id="Clip_1">
    <path d="M-3000.00 3133.00 h6000.00 v-6000.00 h-6000.00 z" />
  </clipPath>
</svg>